<svg width="32" height="33" viewBox="0 0 32 33" xmlns="http://www.w3.org/2000/svg">
    <g fill="none" fillRule="evenodd">
        <g transform="rotate(10 1.07 71.275)" stroke="#595959">
            <rect fill="#FFF" x=".5" y=".5" width="14" height="25.25" rx="2"/>
            <path d="M13 .5c.414 0 .79.168 1.06.44.272.27.44.646.44 1.06v2.188H.5V2c0-.414.168-.79.44-1.06C1.21.667 1.585.5 2 .5z" fill="#F2F2F2"/>
        </g>
        <g transform="translate(7 3)">
            <rect stroke="#595959" fill="#FFF" x=".5" y=".5" width="15" height="27" rx="2"/>
            <g transform="translate(3 7)">
                <rect fill="#595959" x="1" y="12" width="8" height="1" rx=".5"/>
                <rect fill="#595959" x="2" y="14" width="6" height="1" rx=".5"/>
                <circle stroke="#595959" cx="4.167" cy="5.833" r="3.667"/>
                <path stroke="#595959" fill="#F2F2F2" d="M7.083 0 10 5.833H4.167z"/>
            </g>
            <rect fill="#595959" x="3" y="25" width="2" height="1" rx=".5"/>
            <rect fill="#595959" x="7" y="25" width="2" height="1" rx=".5"/>
            <rect fill="#595959" x="11" y="25" width="2" height="1" rx=".5"/>
            <path d="M14 .5c.414 0 .79.168 1.06.44.272.27.44.646.44 1.06v2.5H.5V2c0-.414.168-.79.44-1.06C1.21.667 1.585.5 2 .5z" stroke="#595959" fill="#F2F2F2"/>
            <rect fill="#595959" x="6" y="2" width="4" height="1" rx=".5"/>
        </g>
    </g>
</svg>
