<svg width="33" height="32" viewBox="0 0 33 32" fill="none" xmlns="http://www.w3.org/2000/svg">
<g clip-path="url(#clip0_1992_12981)">
<rect x="1" y="3.5" width="31" height="25" rx="1.5" fill="white" stroke="#595959"/>
<path d="M1 5C1 4.17157 1.67157 3.5 2.5 3.5H30.5C31.3284 3.5 32 4.17157 32 5V9.5H1V5Z" fill="#F2F2F2" stroke="#595959"/>
<rect x="12.0556" y="19.7778" width="2.22222" height="2.22222" transform="rotate(-90 12.0556 19.7778)" fill="white" stroke="#595959" strokeWidth="1.11111"/>
<rect x="5.05556" y="19.7778" width="2.22222" height="2.22222" transform="rotate(-90 5.05556 19.7778)" fill="white" stroke="#595959" strokeWidth="1.11111"/>
<rect x="19.0556" y="19.7778" width="2.22222" height="2.22222" transform="rotate(-90 19.0556 19.7778)" fill="white" stroke="#595959" strokeWidth="1.11111"/>
<rect x="26.0556" y="19.7778" width="2.22222" height="2.22222" transform="rotate(-90 26.0556 19.7778)" fill="white" stroke="#595959" strokeWidth="1.11111"/>
<rect x="12.0556" y="14.7778" width="2.22222" height="2.22222" transform="rotate(-90 12.0556 14.7778)" fill="white" stroke="#595959" strokeWidth="1.11111"/>
<rect x="5.05556" y="14.7778" width="2.22222" height="2.22222" transform="rotate(-90 5.05556 14.7778)" fill="white" stroke="#595959" strokeWidth="1.11111"/>
<rect x="19.0556" y="14.7778" width="2.22222" height="2.22222" transform="rotate(-90 19.0556 14.7778)" fill="white" stroke="#595959" strokeWidth="1.11111"/>
<rect x="26.0556" y="14.7778" width="2.22222" height="2.22222" transform="rotate(-90 26.0556 14.7778)" fill="white" stroke="#595959" strokeWidth="1.11111"/>
<rect x="5.05556" y="24.7778" width="2.22222" height="2.22222" transform="rotate(-90 5.05556 24.7778)" fill="white" stroke="#595959" strokeWidth="1.11111"/>
<rect x="12.0556" y="24.7778" width="2.22222" height="2.22222" transform="rotate(-90 12.0556 24.7778)" fill="white" stroke="#595959" strokeWidth="1.11111"/>
<rect x="19.0556" y="24.7778" width="2.22222" height="2.22222" transform="rotate(-90 19.0556 24.7778)" fill="white" stroke="#595959" strokeWidth="1.11111"/>
<rect x="25.5" y="25.3334" width="3.33333" height="3.33333" transform="rotate(-90 25.5 25.3334)" fill="#595959"/>
<path d="M8.5 6.11111C8.5 5.49746 8.99746 5 9.61111 5C10.2248 5 10.7222 5.49746 10.7222 6.11111C10.7222 6.72476 10.2248 7.22222 9.61111 7.22222C8.99746 7.22222 8.5 6.72476 8.5 6.11111Z" fill="#595959"/>
<path d="M21.5 6.11111C21.5 5.49746 21.9975 5 22.6111 5C23.2248 5 23.7222 5.49746 23.7222 6.11111C23.7222 6.72476 23.2248 7.22222 22.6111 7.22222C21.9975 7.22222 21.5 6.72476 21.5 6.11111Z" fill="#595959"/>
</g>
<defs>
<clipPath id="clip0_1992_12981">
<rect width="32" height="32" fill="white" transform="translate(0.5)"/>
</clipPath>
</defs>
</svg>
