<svg width="32" height="32" viewBox="0 0 32 32" xmlns="http://www.w3.org/2000/svg">
    <g fill="none" fillRule="evenodd">
        <rect stroke="#595959" fill="#F2F2F2" x="7.5" y="3.5" width="19" height="24" rx="2"/>
        <rect stroke="#595959" fill="#FFF" x="5.5" y="5.5" width="19" height="24" rx="2"/>
        <g fill="#595959" fillRule="nonzero">
            <path d="M17.02 15.244c-.495-.568-.984-1.202-1.424-1.772-.208-.27-.407-.526-.593-.76l-.013-.017c.272-.797.427-1.449.462-1.939.088-1.247-.047-2.05-.414-2.456a.894.894 0 0 0-.969-.248c-.25.086-.59.317-.783.928-.29.91-.15 2.524.672 3.858a28.872 28.872 0 0 1-1.442 3.201c-1.074.387-1.931.897-2.546 1.515-.803.806-1.13 1.607-.896 2.195.144.365.477.583.89.583.288 0 .599-.107.9-.31.761-.51 1.754-2.214 2.287-3.202a13.83 13.83 0 0 1 2.743-.553c.25-.025.499-.045.738-.059.968 1.052 1.76 1.606 2.49 1.744.146.028.293.043.436.043.594 0 1.086-.244 1.315-.653a.99.99 0 0 0-.01-.987c-.405-.72-1.626-1.117-3.439-1.117-.13 0-.265.002-.405.006zm-6.66 3.986c-.144.097-.292.154-.396.154a.161.161 0 0 1-.041-.004c-.018-.094.047-.503.69-1.15.302-.303.684-.58 1.137-.825-.571.944-1.084 1.62-1.39 1.825zm3.8-9.956c.068-.211.151-.307.203-.324l.003-.002c.05.058.263.39.168 1.74a4.95 4.95 0 0 1-.167.888c-.307-.814-.391-1.718-.206-2.302zm1.646 6.05c-.49.049-1.237.149-2.069.351.323-.663.622-1.334.871-1.957l.266.343c.3.39.64.83.99 1.258l-.058.005zm4.259 1.504c.014.025.013.034.01.04-.039.07-.214.18-.518.18-.085 0-.176-.01-.27-.027-.38-.073-.822-.343-1.35-.824 1.433.07 2.012.425 2.128.631zM12.813 21.595a.957.957 0 0 0-.385-.212 2.315 2.315 0 0 0-.62-.064h-.88c-.168 0-.294.04-.376.118-.083.08-.125.208-.125.382v2.688c0 .156.037.278.112.362.075.087.176.13.298.13a.378.378 0 0 0 .294-.13c.076-.086.114-.21.114-.367v-.92h.564c.434 0 .768-.097.992-.29.227-.195.343-.484.343-.86 0-.174-.028-.333-.083-.474a.962.962 0 0 0-.248-.363zm-.57 1.123a.406.406 0 0 1-.214.147c-.102.033-.232.05-.387.05h-.396v-.93h.396c.358 0 .503.073.56.132a.466.466 0 0 1 .115.33.458.458 0 0 1-.073.271zM16.068 21.651a1.161 1.161 0 0 0-.48-.264 2.43 2.43 0 0 0-.615-.07h-.895c-.166 0-.29.042-.368.123-.079.081-.119.208-.119.378v2.557c0 .12.01.216.032.293a.334.334 0 0 0 .153.203.597.597 0 0 0 .316.068h.895c.158 0 .303-.01.43-.031.13-.022.252-.06.365-.113.113-.053.22-.125.315-.214.12-.113.22-.244.298-.389.077-.144.134-.308.17-.486.037-.176.055-.374.055-.587 0-.651-.186-1.145-.552-1.468zm-.598 2.445a.49.49 0 0 1-.159.095.757.757 0 0 1-.185.043c-.062.006-.15.01-.262.01h-.455v-2.232h.388c.203 0 .377.023.517.068.131.04.245.14.336.297.094.16.142.408.142.738 0 .465-.108.795-.322.981zM19.184 21.319h-1.62a.616.616 0 0 0-.266.05.342.342 0 0 0-.17.173.664.664 0 0 0-.05.277v2.683c0 .161.039.286.114.369.076.085.176.129.297.129a.384.384 0 0 0 .294-.127c.076-.084.114-.209.114-.371V23.42h1.065a.4.4 0 0 0 .277-.088.314.314 0 0 0 .101-.243c0-.1-.033-.183-.099-.244-.064-.06-.158-.09-.279-.09h-1.065v-.757h1.287c.126 0 .223-.03.289-.093a.326.326 0 0 0 .101-.248c0-.1-.034-.183-.101-.246s-.164-.093-.29-.093z"/>
        </g>
    </g>
</svg>
