<svg width="32" height="32" viewBox="0 0 32 32" xmlns="http://www.w3.org/2000/svg">
    <g transform="translate(0 3)" fill="none" fillRule="evenodd">
        <rect stroke="#595959" fill="#FFF" transform="rotate(-180 16 11)" x="2.786" y=".5" width="26.429" height="21" rx="2"/>
        <rect stroke="#595959" fill="#F2F2F2" transform="rotate(-180 16 23.5)" x=".5" y="21.5" width="31" height="4" rx="2"/>
        <g fill="#595959" fillRule="nonzero">
            <path d="M16 10.716c.626 0 1.134.511 1.134 1.142 0 .63-.508 1.142-1.134 1.142a1.138 1.138 0 0 1-1.134-1.142c0-.631.508-1.142 1.134-1.142z"/>
            <path d="M14.02 10.511a.48.48 0 0 1-.67.13.487.487 0 0 1-.128-.674 3.372 3.372 0 0 1 1.207-1.094A3.32 3.32 0 0 1 16 8.48c.568 0 1.103.142 1.572.393.484.259.898.636 1.206 1.094a.487.487 0 0 1-.128.674.48.48 0 0 1-.668-.13 2.407 2.407 0 0 0-.863-.778 2.366 2.366 0 0 0-1.118-.28c-.405 0-.785.102-1.119.28a2.407 2.407 0 0 0-.862.778zM21.88 6.696a.488.488 0 0 1-.044.685.48.48 0 0 1-.68-.046 6.864 6.864 0 0 0-2.328-1.746A6.768 6.768 0 0 0 16 4.974c-1.009 0-1.966.22-2.827.615a6.865 6.865 0 0 0-2.328 1.746.48.48 0 0 1-.68.046.487.487 0 0 1-.046-.685 7.83 7.83 0 0 1 2.653-1.994A7.726 7.726 0 0 1 16 4c1.151 0 2.244.251 3.228.702a7.829 7.829 0 0 1 2.653 1.994z"/>
            <path d="M12.334 8.842a.481.481 0 0 1-.68.069.49.49 0 0 1-.068-.685 5.728 5.728 0 0 1 1.975-1.557A5.643 5.643 0 0 1 16 6.118c.87 0 1.698.198 2.438.551a5.73 5.73 0 0 1 1.976 1.557.49.49 0 0 1-.068.685.481.481 0 0 1-.68-.069 4.76 4.76 0 0 0-1.64-1.294A4.688 4.688 0 0 0 16 7.09a4.693 4.693 0 0 0-3.666 1.751z"/>
        </g>
        <g fill="#595959" fillRule="nonzero">
            <path d="m13.75 18.325-.56-2.32-.568 2.32c-.044.175-.079.302-.105.378a.503.503 0 0 1-.136.206.361.361 0 0 1-.258.091.388.388 0 0 1-.214-.054.397.397 0 0 1-.136-.153 1.028 1.028 0 0 1-.085-.235c-.022-.09-.042-.175-.059-.252l-.577-2.604a1.686 1.686 0 0 1-.052-.346c0-.1.032-.184.095-.253a.305.305 0 0 1 .234-.103c.127 0 .213.046.257.137.045.092.083.224.116.399l.454 2.258.509-2.113c.038-.162.072-.285.102-.37a.533.533 0 0 1 .146-.219.396.396 0 0 1 .277-.092c.118 0 .21.032.275.096.066.065.111.134.136.21.026.076.06.2.102.375l.513 2.113.454-2.258c.022-.118.043-.21.063-.277a.454.454 0 0 1 .102-.18c.048-.053.117-.079.209-.079.091 0 .169.034.233.102a.357.357 0 0 1 .096.254c0 .072-.018.188-.052.346l-.577 2.604a5.05 5.05 0 0 1-.099.387.52.52 0 0 1-.132.215.359.359 0 0 1-.264.092.365.365 0 0 1-.257-.09.485.485 0 0 1-.135-.202 5.846 5.846 0 0 1-.107-.383zM16.46 16.48v2.082c0 .144-.032.253-.095.327a.305.305 0 0 1-.242.111.292.292 0 0 1-.238-.113.505.505 0 0 1-.091-.325v-2.06c0-.143.03-.25.091-.323a.297.297 0 0 1 .238-.108c.098 0 .178.036.242.108a.44.44 0 0 1 .095.301zm-.33-.744a.336.336 0 0 1-.238-.092.34.34 0 0 1-.098-.261c0-.102.033-.186.1-.252a.334.334 0 0 1 .465-.01c.068.06.101.147.101.262 0 .11-.032.197-.098.26a.324.324 0 0 1-.232.093zM19.223 15.67h-1.384v.99h1.157c.107 0 .187.026.24.08.052.054.079.125.079.215s-.027.161-.08.214c-.054.053-.134.079-.24.079H17.84v1.274c0 .162-.033.282-.098.36a.313.313 0 0 1-.252.118.314.314 0 0 1-.254-.119c-.066-.079-.098-.199-.098-.359v-2.976c0-.112.015-.204.045-.276a.297.297 0 0 1 .14-.155.538.538 0 0 1 .245-.049h1.656c.112 0 .195.028.25.083a.297.297 0 0 1 .08.218.3.3 0 0 1-.08.22c-.055.055-.138.083-.25.083zM20.698 16.48v2.082c0 .144-.032.253-.095.327a.305.305 0 0 1-.242.111.292.292 0 0 1-.238-.113.505.505 0 0 1-.092-.325v-2.06c0-.143.03-.25.092-.323a.297.297 0 0 1 .238-.108c.098 0 .178.036.242.108a.44.44 0 0 1 .095.301zm-.33-.744a.336.336 0 0 1-.238-.092.34.34 0 0 1-.099-.261c0-.102.034-.186.102-.252a.334.334 0 0 1 .465-.01c.066.06.1.147.1.262 0 .11-.033.197-.098.26a.324.324 0 0 1-.232.093z"/>
        </g>
    </g>
</svg>
