<svg width="330" height="80" viewBox="0 0 189 32" xmlns="http://www.w3.org/2000/svg">
    <g fill="none" fillRule="evenodd">
        <g fill="#262626" fillRule="nonzero">
            <path d="m53.62 28.4-2.912-3.484c-.806.2-1.63.301-2.473.301-1.795 0-3.443-.42-4.945-1.262a9.429 9.429 0 0 1-3.571-3.498c-.88-1.49-1.319-3.178-1.319-5.062 0-1.866.44-3.544 1.319-5.035a9.429 9.429 0 0 1 3.571-3.498c1.502-.841 3.15-1.262 4.945-1.262 1.813 0 3.466.42 4.959 1.262a9.357 9.357 0 0 1 3.544 3.498c.87 1.491 1.305 3.17 1.305 5.035 0 1.701-.362 3.251-1.085 4.65-.724 1.4-1.708 2.538-2.954 3.416L58.4 28.4h-4.78zM42.4 15.572c0 1.288.244 2.419.733 3.394.49.974 1.173 1.724 2.052 2.248.878.524 1.888.786 3.029.786 1.14 0 2.146-.262 3.015-.786.87-.524 1.549-1.274 2.038-2.248.489-.975.733-2.106.733-3.394 0-1.287-.244-2.413-.733-3.379-.49-.965-1.169-1.706-2.038-2.22-.87-.516-1.874-.773-3.015-.773s-2.151.257-3.03.772c-.878.515-1.562 1.256-2.05 2.221-.49.966-.734 2.092-.734 3.38zM70.836 25.6l-4.312-7.616h-1.848V25.6h-3.92V6.056h7.336c1.512 0 2.8.266 3.864.798s1.862 1.25 2.394 2.156c.532.905.798 1.918.798 3.038a5.82 5.82 0 0 1-1.12 3.486c-.746 1.036-1.857 1.75-3.332 2.142l4.676 7.924h-4.536zm-6.16-10.556h3.276c1.064 0 1.858-.257 2.38-.77.523-.513.784-1.227.784-2.142 0-.896-.261-1.591-.784-2.086-.522-.495-1.316-.742-2.38-.742h-3.276v5.74zM83.593 15.8c0-1.923.434-3.645 1.302-5.166a9.297 9.297 0 0 1 3.556-3.556c1.502-.85 3.187-1.274 5.054-1.274 2.184 0 4.097.56 5.74 1.68 1.642 1.12 2.79 2.67 3.444 4.648H98.18c-.448-.933-1.078-1.633-1.89-2.1-.812-.467-1.75-.7-2.814-.7-1.139 0-2.152.266-3.038.798-.887.532-1.578 1.283-2.072 2.254-.495.97-.742 2.11-.742 3.416 0 1.288.247 2.422.742 3.402.494.98 1.185 1.736 2.072 2.268.886.532 1.899.798 3.038.798 1.064 0 2.002-.238 2.814-.714.812-.476 1.442-1.18 1.89-2.114h4.508c-.654 1.997-1.797 3.551-3.43 4.662-1.634 1.11-3.552 1.666-5.754 1.666-1.867 0-3.552-.425-5.054-1.274a9.325 9.325 0 0 1-3.556-3.542c-.868-1.512-1.302-3.23-1.302-5.152zM109.557 12.496a5.511 5.511 0 0 1 1.974-1.932c.812-.467 1.74-.7 2.786-.7v4.116h-1.036c-1.232 0-2.16.29-2.786.868-.625.579-.938 1.587-.938 3.024V25.6h-3.92V10.088h3.92v2.408zM130.957 17.508c0 .56-.037 1.064-.112 1.512h-11.34c.094 1.12.486 1.997 1.176 2.632s1.54.952 2.548.952c1.456 0 2.492-.625 3.108-1.876h4.228c-.448 1.493-1.306 2.72-2.576 3.682-1.27.961-2.828 1.442-4.676 1.442-1.493 0-2.832-.331-4.018-.994a6.996 6.996 0 0 1-2.772-2.814c-.662-1.213-.994-2.613-.994-4.2 0-1.605.327-3.015.98-4.228.654-1.213 1.568-2.147 2.744-2.8 1.176-.653 2.53-.98 4.06-.98 1.475 0 2.796.317 3.962.952a6.7 6.7 0 0 1 2.716 2.702c.644 1.167.966 2.506.966 4.018zm-4.06-1.12c-.018-1.008-.382-1.815-1.092-2.422-.71-.607-1.577-.91-2.604-.91-.97 0-1.787.294-2.45.882-.662.588-1.068 1.405-1.218 2.45h7.364zM132.393 17.788c0-1.568.313-2.959.938-4.172.626-1.213 1.475-2.147 2.548-2.8 1.074-.653 2.273-.98 3.598-.98 1.158 0 2.17.233 3.038.7.868.467 1.564 1.055 2.086 1.764v-2.212h3.948V25.6h-3.948v-2.268c-.504.728-1.199 1.33-2.086 1.806-.886.476-1.908.714-3.066.714-1.306 0-2.496-.336-3.57-1.008-1.073-.672-1.922-1.62-2.548-2.842-.625-1.223-.938-2.627-.938-4.214zm12.208.056c0-.952-.186-1.769-.56-2.45a3.948 3.948 0 0 0-1.512-1.568 4.041 4.041 0 0 0-2.044-.546c-.728 0-1.4.177-2.016.532-.616.355-1.115.873-1.498 1.554-.382.681-.574 1.489-.574 2.422s.192 1.75.574 2.45c.383.7.887 1.237 1.512 1.61a3.84 3.84 0 0 0 2.002.56c.728 0 1.41-.182 2.044-.546a3.948 3.948 0 0 0 1.512-1.568c.374-.681.56-1.498.56-2.45zM156.538 13.308v7.504c0 .523.126.9.378 1.134.252.233.676.35 1.274.35h1.82V25.6h-2.464c-3.304 0-4.956-1.605-4.956-4.816v-7.476h-1.848v-3.22h1.848V6.252h3.948v3.836h3.472v3.22h-3.472zM169.314 25.852c-1.493 0-2.837-.331-4.032-.994a7.158 7.158 0 0 1-2.814-2.814c-.681-1.213-1.022-2.613-1.022-4.2 0-1.587.35-2.987 1.05-4.2a7.297 7.297 0 0 1 2.87-2.814c1.213-.663 2.567-.994 4.06-.994 1.493 0 2.847.331 4.06.994a7.297 7.297 0 0 1 2.87 2.814c.7 1.213 1.05 2.613 1.05 4.2 0 1.587-.36 2.987-1.078 4.2a7.465 7.465 0 0 1-2.912 2.814c-1.223.663-2.59.994-4.102.994zm0-3.416c.71 0 1.377-.173 2.002-.518.625-.345 1.125-.863 1.498-1.554.373-.69.56-1.53.56-2.52 0-1.475-.387-2.609-1.162-3.402-.775-.793-1.722-1.19-2.842-1.19s-2.058.397-2.814 1.19c-.756.793-1.134 1.927-1.134 3.402s.369 2.609 1.106 3.402c.737.793 1.666 1.19 2.786 1.19zM183.798 12.496a5.511 5.511 0 0 1 1.974-1.932c.812-.467 1.74-.7 2.786-.7v4.116h-1.036c-1.232 0-2.16.29-2.786.868-.625.579-.938 1.587-.938 3.024V25.6h-3.92V10.088h3.92v2.408z"/>
        </g>
        <path fill="#197FE6" d="M12.8 12.8h12.8v12.8H12.8z"/>
        <path d="M6.399 25.6H12.8V32H0V0h32v12.8h-6.4V6.4H6.399v19.2zM25.568 25.568h6.4v6.4h-6.4z" fill="#197FE6"/>
    </g>
</svg>
