<svg width="120" height="120" viewBox="0 0 120 120" xmlns="http://www.w3.org/2000/svg">
    <g fill="none" fillRule="evenodd">
        <circle fill="#A3CCF5" cx="60" cy="60" r="60"/>
        <path d="M94.773 32.682v9.636a2 2 0 0 1-2 2H32.682a2 2 0 0 1-2-2v-9.636a2 2 0 0 1 2-2h60.09a2 2 0 0 1 2 2z" fill="#F6FAFE"/>
        <g transform="translate(12.955 72.955)">
            <path d="M64.09 2v9.636a2 2 0 0 1-2 2H2a2 2 0 0 1-2-2V2a2 2 0 0 1 2-2h60.09a2 2 0 0 1 2 2z" fill="#F6FAFE"/>
            <rect fill="#197FE6" x="7.5" y="4.773" width="27.273" height="4.091" rx="2"/>
            <rect fill="#197FE6" x="40.227" y="4.773" width="19.091" height="4.091" rx="2"/>
        </g>
        <path d="M99.545 53.818v11a2 2 0 0 1-2 2H27.91a2 2 0 0 1-2-2v-11a2 2 0 0 1 2-2h69.636a2 2 0 0 1 2 2z" stroke="#0A335C" strokeWidth="2" fill="#F6FAFE"/>
        <rect fill="#FACF51" x="32.727" y="57.273" width="38.182" height="4.091" rx="2"/>
        <rect fill="#FACF51" x="76.364" y="57.273" width="6.818" height="4.091" rx="2"/>
        <rect fill="#FACF51" x="87.273" y="57.273" width="5.455" height="4.091" rx="2"/>
        <g fill="#0A335C" fillRule="nonzero">
            <path d="M97.871 85.325c-1.278-.649-2.79.374-2.67 1.786l1.642 17.602c.104 1.368 1.703 2.106 2.863 1.342l3.493-2.392c.323-.202.775-.155.976.166l5.937 8.71a1.827 1.827 0 0 0 2.534.483l2.98-2.032a1.82 1.82 0 0 0 .489-2.529l-5.936-8.71c-.202-.321-.154-.772.169-.974l3.493-2.392c1.16-.764 1.029-2.51-.192-3.13l-15.778-7.93zM90.225 79.266a1.674 1.674 0 0 0 1.906.638c.131-.043.307-.1.425-.186a1.723 1.723 0 0 0 .458-2.325l-2.22-3.245a1.73 1.73 0 0 0-2.33-.451 1.723 1.723 0 0 0-.458 2.324l2.219 3.245zM88.051 82.584l-3.875-.724c-.932-.18-1.798.44-1.952 1.312-.153.871.437 1.792 1.311 1.943l3.875.724c.306.046.584.004.803-.068.57-.185.998-.662 1.135-1.287a1.564 1.564 0 0 0-1.297-1.9zM88.237 89.73l-3.258 2.219a1.723 1.723 0 0 0-.458 2.325 1.674 1.674 0 0 0 1.906.638c.132-.043.307-.1.425-.187l3.258-2.22a1.723 1.723 0 0 0 .458-2.324c-.548-.79-1.582-.986-2.33-.452zM103.044 81.678a1.674 1.674 0 0 0 1.906.638c.132-.043.308-.1.425-.186l3.259-2.22a1.723 1.723 0 0 0 .458-2.325 1.73 1.73 0 0 0-2.331-.451l-3.259 2.22c-.763.489-.962 1.52-.458 2.324zM98.227 78.504c.306.045.584.004.803-.068.571-.185.998-.663 1.135-1.287l.734-3.866a1.642 1.642 0 0 0-1.31-1.944c-.933-.18-1.8.44-1.953 1.312l-.734 3.865c-.183.93.393 1.807 1.325 1.988z"/>
        </g>
        <rect fill="#0A335C" x="38.182" y="35.455" width="38.182" height="4.091" rx="2"/>
    </g>
</svg>
