<svg width="120" height="120" viewBox="0 0 120 120" xmlns="http://www.w3.org/2000/svg">
    <g fill="none" fillRule="evenodd">
        <circle fill="#A3CCF5" cx="60" cy="60" r="60"/>
        <rect fill="#F6FAFE" x="27.273" y="28.636" width="73.636" height="73.636" rx="2"/>
        <rect fill="#197FE6" x="36.477" y="37.841" width="9.205" height="9.205" rx="2"/>
        <rect fill="#197FE6" x="50.284" y="37.841" width="9.205" height="9.205" rx="2"/>
        <rect fill="#197FE6" x="36.477" y="51.648" width="9.205" height="9.205" rx="2"/>
        <rect fill="#197FE6" x="50.284" y="51.648" width="9.205" height="9.205" rx="2"/>
        <rect fill="#197FE6" x="43.381" y="44.744" width="9.205" height="9.205" rx="2"/>
        <rect fill="#FACF51" x="41.08" y="74.659" width="13.807" height="13.807" rx="2"/>
        <rect fill="#0A335C" x="73.295" y="42.443" width="13.807" height="13.807" rx="2"/>
        <rect stroke="#0A335C" strokeWidth="2" x="36.477" y="70.057" width="23.011" height="23.011" rx="2"/>
        <rect stroke="#0A335C" strokeWidth="2" x="68.693" y="37.841" width="23.011" height="23.011" rx="2"/>
        <g fill="#0F4D8A" fillRule="nonzero">
            <path d="M26.929 108.24a1.674 1.674 0 0 0-.088-2.008c-.087-.108-.203-.251-.326-.33a1.723 1.723 0 0 0-2.334.406l-2.234 3.234a1.73 1.73 0 0 0 .413 2.338c.767.508 1.801.323 2.335-.406l2.234-3.234zM30.805 109.08l.713 3.877c.166.935 1.055 1.522 1.924 1.353.87-.17 1.517-1.05 1.345-1.92l-.713-3.878a1.763 1.763 0 0 0-.351-.725c-.378-.467-.976-.694-1.609-.598a1.564 1.564 0 0 0-1.309 1.891zM37.41 106.346l3.239 2.246c.766.508 1.8.324 2.335-.405a1.674 1.674 0 0 0-.088-2.008c-.087-.108-.203-.252-.326-.33l-3.24-2.247a1.723 1.723 0 0 0-2.335.406c-.54.794-.352 1.83.414 2.338zM24.586 95.408A1.674 1.674 0 0 0 24.5 93.4c-.087-.108-.203-.252-.326-.33l-3.24-2.247a1.723 1.723 0 0 0-2.335.406 1.73 1.73 0 0 0 .414 2.337l3.24 2.247c.73.537 1.765.353 2.334-.405zM23.35 101.042a1.763 1.763 0 0 0-.352-.725c-.377-.467-.976-.694-1.608-.598l-3.872.7a1.642 1.642 0 0 0-1.345 1.92c.165.935 1.055 1.522 1.924 1.353l3.872-.7c.934-.163 1.546-1.015 1.38-1.95z"/>
        </g>
        <g transform="translate(71.818 73.182)">
            <circle stroke="#F6FAFE" strokeWidth="2" fill="#75B2F0" cx="17.5" cy="17.5" r="17.5"/>
            <path d="M24.5 19v5c0 .55-.45 1-1 1h-12c-.55 0-1-.45-1-1v-5c0-.55-.45-1-1-1s-1 .45-1 1v6c0 1.1.9 2 2 2h14c1.1 0 2-.9 2-2v-6c0-.55-.45-1-1-1s-1 .45-1 1zm-6-.33 1.88-1.88a.996.996 0 1 1 1.41 1.41l-3.59 3.59a.996.996 0 0 1-1.41 0L13.2 18.2a.996.996 0 1 1 1.41-1.41l1.89 1.88V10c0-.55.45-1 1-1s1 .45 1 1v8.67z" fill="#1466B8"/>
        </g>
    </g>
</svg>
