<svg width="137" height="120" viewBox="0 0 137 120" xmlns="http://www.w3.org/2000/svg">
    <g transform="translate(1)" fill="none" fillRule="evenodd">
        <circle fill="#A3CCF5" cx="65.455" cy="60" r="60"/>
        <g fill="#0F4D8A" fillRule="nonzero">
            <path d="M98.837 19.756a1.674 1.674 0 0 0 .088 2.008c.087.107.203.251.326.33.766.508 1.8.323 2.334-.406l2.234-3.234a1.73 1.73 0 0 0-.413-2.338 1.723 1.723 0 0 0-2.335.406l-2.234 3.234zM94.96 18.915l-.712-3.877c-.166-.935-1.055-1.521-1.924-1.352-.869.17-1.517 1.05-1.345 1.92l.713 3.877c.067.302.206.547.351.726.378.466.976.694 1.609.598a1.564 1.564 0 0 0 1.309-1.892zM88.357 21.65l-3.24-2.247a1.723 1.723 0 0 0-2.335.406 1.674 1.674 0 0 0 .088 2.008c.087.108.203.251.326.33l3.24 2.247c.766.508 1.8.323 2.335-.406.54-.795.352-1.83-.414-2.338zM101.18 32.588a1.674 1.674 0 0 0 .087 2.008c.087.108.203.251.326.33l3.24 2.247c.766.508 1.8.323 2.335-.406a1.73 1.73 0 0 0-.414-2.338l-3.24-2.246c-.73-.537-1.765-.353-2.334.405zM102.417 26.954c.067.302.205.546.35.725.378.466.977.694 1.61.598l3.871-.7a1.642 1.642 0 0 0 1.345-1.92c-.165-.936-1.055-1.522-1.924-1.353l-3.872.7c-.934.163-1.546 1.015-1.38 1.95z"/>
        </g>
        <path d="M96.818 30.636v58.728a2 2 0 0 1-2 2H36.091a2 2 0 0 1-2-2V30.636a2 2 0 0 1 2-2h58.727a2 2 0 0 1 2 2z" fill="#F6FAFE"/>
        <path d="M55.91 74.273v23.272a2 2 0 0 1-2 2H2a2 2 0 0 1-2-2V74.273a2 2 0 0 1 2-2h51.91a2 2 0 0 1 2 2zM135 41.545v23.273a2 2 0 0 1-2 2H71.545a2 2 0 0 1-2-2V41.545a2 2 0 0 1 2-2H133a2 2 0 0 1 2 2z" stroke="#0A335C" strokeWidth="2" fill="#FFF"/>
        <path d="M91.364 47v12.364a2 2 0 0 1-2 2H77a2 2 0 0 1-2-2V47a2 2 0 0 1 2-2h12.364a2 2 0 0 1 2 2zM110.455 47v12.364a2 2 0 0 1-2 2H96.09a2 2 0 0 1-2-2V47a2 2 0 0 1 2-2h12.364a2 2 0 0 1 2 2zM129.545 47v12.364a2 2 0 0 1-2 2h-12.363a2 2 0 0 1-2-2V47a2 2 0 0 1 2-2h12.363a2 2 0 0 1 2 2z" fill="#0A335C"/>
        <path fill="#F6FAFE" d="M88.636 47.727v10.91H77.727v-10.91z"/>
        <path fill="#D1E5FA" d="M107.727 47.727v10.91H96.818v-10.91z"/>
        <path fill="#197FE6" d="M126.818 47.727v10.91H115.91v-10.91z"/>
        <path d="M133.636 78.364v21.909a2 2 0 0 1-2 2h-60.09a2 2 0 0 1-2-2v-21.91a2 2 0 0 1 2-2h60.09a2 2 0 0 1 2 2z" stroke="#0A335C" strokeWidth="2" fill="#FFF"/>
        <path d="M128.182 82.455v4.181a2 2 0 0 1-2 2H77a2 2 0 0 1-2-2v-4.181a2 2 0 0 1 2-2h49.182a2 2 0 0 1 2 2zM114.545 92v4.182a2 2 0 0 1-2 2H77a2 2 0 0 1-2-2V92a2 2 0 0 1 2-2h35.545a2 2 0 0 1 2 2z" fill="#0A335C"/>
        <path fill="#D1E5FA" d="M125.454 83.182v2.727H77.727v-2.727z"/>
        <path fill="#197FE6" d="M111.119 92.727v2.728H77.028v-2.728z"/>
        <path fill="#0A335C" d="M21.818 77.727v16.364H5.455V77.727z"/>
        <rect fill="#197FE6" x="27.273" y="79.091" width="24.545" height="2.727" rx="1.364"/>
        <rect fill="#0A335C" x="39.545" y="35.455" width="24.545" height="2.727" rx="1.364"/>
        <rect fill="#197FE6" x="27.273" y="84.545" width="24.545" height="2.727" rx="1.364"/>
        <rect fill="#0A335C" x="39.545" y="40.909" width="24.545" height="2.727" rx="1.364"/>
        <rect fill="#197FE6" x="27.273" y="90" width="15.62" height="2.727" rx="1.364"/>
        <rect fill="#0A335C" x="39.545" y="46.364" width="15.62" height="2.727" rx="1.364"/>
        <path d="M51.818 61v4.818a1 1 0 0 1-1 1H46a1 1 0 0 1-1-1V61a1 1 0 0 1 1-1h4.818a1 1 0 0 1 1 1z" fill="#FACF51"/>
        <path d="M46.364 55.545v4.819a1 1 0 0 1-1 1h-4.819a1 1 0 0 1-1-1v-4.819a1 1 0 0 1 1-1h4.819a1 1 0 0 1 1 1zM57.273 55.545v4.819a1 1 0 0 1-1 1h-4.818a1 1 0 0 1-1-1v-4.819a1 1 0 0 1 1-1h4.818a1 1 0 0 1 1 1z" fill="#FACF51"/>
    </g>
</svg>
